# xmcd CD database file
#
# Track frame offsets:
#	150
#	1755
#	13215
#	22485
#	32690
#	43665
#	52590
#	62947
#	74932
#	89527
#	103282
#	114537
#	129975
#	142697
#	158362
#	170107
#	183467
#	198667
#	209155
#	222765
#	237817
#	246915
#	262845
#	274430
#	289835
#	301077
#
# Disc length: 4121 seconds
#
# Revision: 0
# Processed by: cddbd v1.5.1PL0 Copyright (c) Steve Scherf et al.
# Submitted via: CDex 1.51
#
DISCID=8710171a
DTITLE=AVRO Dansorkest, Het - Het A.V.R.O. Dansorkest o.l.v. Klaas van Beeck 1938-40
DYEAR=1996
DGENRE=Jazz
TTITLE0=Begin-tune
TTITLE1=Crazy rhythm
TTITLE2=You've asked for it, you got it
TTITLE3=Floogie walk
TTITLE4=Darktown Strutters' ball
TTITLE5=Wjat goes up must come down
TTITLE6=Don't you put the bee on me
TTITLE7=Night wing
TTITLE8=Yesterdays
TTITLE9=Honolulu
TTITLE10=F and A Flat
TTITLE11=Rock-a-bye Basie
TTITLE12=In a moment of weakness
TTITLE13=ev'rything has changed dear
TTITLE14=We'll have a big moving party
TTITLE15=Say "Si-Si"
TTITLE16=In the mood
TTITLE17=Smoke house
TTITLE18=In a little spanish town
TTITLE19=What is this thing called love?
TTITLE20=China boy
TTITLE21=In an 18th century drawing room
TTITLE22=Als je een ster ziet vallen
TTITLE23=Chinatown, my Chinatown
TTITLE24=Angela Mia
TTITLE25=Slot tune: Say it again
EXTD=YEAR: 1996
EXTT0=
EXTT1=
EXTT2=
EXTT3=
EXTT4=
EXTT5=
EXTT6=
EXTT7=
EXTT8=
EXTT9=
EXTT10=
EXTT11=
EXTT12=
EXTT13=
EXTT14=
EXTT15=
EXTT16=
EXTT17=
EXTT18=
EXTT19=
EXTT20=
EXTT21=
EXTT22=
EXTT23=
EXTT24=
EXTT25=
PLAYORDER=
